<?xml version="1.0" encoding="UTF-8" standalone="no"?>
<!-- Created with Inkscape (http://www.inkscape.org/) -->

<svg
   width="100mm"
   height="75mm"
   viewBox="0 0 100 75"
   version="1.1"
   id="svg1393"
   xmlns="http://www.w3.org/2000/svg"
   xmlns:svg="http://www.w3.org/2000/svg">
  <defs
     id="defs1390" />
  <g
     id="layer1"
     transform="translate(-40.742128,-88.230785)">
    <g
       id="g1493"
       transform="matrix(1.2910555,0,0,1.3139933,-30.455256,-28.463031)">
      <path
         id="path2094-7-8-0-2-9-5"
         style="fill:#999999;stroke-width:0.0905695"
         d="m 116.1048,92.728001 c -1.57544,0.0674 -3.11744,0.46702 -4.59225,1.02582 -4.21708,1.20915 -7.48362,4.61444 -11.742163,5.71246 -1.2501,0.31084 -2.55096,0.2992 -3.7956,0.647979 -2.48841,0.5693 -4.92776,1.53967 -7.51524,1.3043 -4.53599,-0.64453 -8.97656,-2.269239 -13.60364,-2.041449 -1.79878,0.0709 -3.5668,0.52222 -5.22424,1.238329 -3.61383,1.31857 -6.55112,4.16073 -8.55807,7.48787 -2.19655,3.60276 -3.53799,7.69265 -4.44711,11.82527 -0.58029,4.34223 -0.71445,8.8959 0.70294,13.08856 1.7154,4.45948 5.06997,8.3529 9.44052,10.11295 2.12794,0.78249 4.27439,1.54113 6.4959,1.99111 8.17821,1.74739 16.97205,0.49455 24.29578,-3.67951 5.749023,-3.08746 11.428673,-6.3175 17.255933,-9.24643 6.23241,-3.92312 11.76397,-9.06212 16.13488,-15.10917 1.78876,-3.1773 2.06577,-7.10466 1.10888,-10.6101 -0.96517,-3.64339 -3.08048,-6.919999 -5.86057,-9.350849 -2.3764,-3.12866 -6.32139,-4.61238 -10.09595,-4.39714 z" />
      <path
         id="path2094-8-1-6-5-3"
         style="fill:#f9f9f9;stroke-width:0.0910586"
         d="m 114.98498,88.821071 c -1.59349,0.0476 -3.15521,0.44004 -4.64914,0.99545 -4.22291,1.17842 -7.49092,4.60122 -11.763643,5.64359 -1.19832,0.28753 -2.44303,0.25955 -3.6373,0.57921 -2.63162,0.56547 -5.2761,1.62895 -8.00431,1.21562 -4.43947,-0.74037 -8.797,-2.32848 -13.3432,-2.14038 -1.78849,0.0595 -3.54888,0.49511 -5.20166,1.19412 -3.52534,1.25836 -6.40411,3.998309 -8.3782,7.222859 -2.26398,3.67478 -3.60796,7.87273 -4.49916,12.10664 -0.5417,4.38145 -0.62554,8.96412 0.81977,13.1802 1.77119,4.52777 5.17514,8.48924 9.61498,10.30458 2.3714,0.90167 4.77629,1.74814 7.26895,2.21457 7.96596,1.59629 16.48341,0.38575 23.62066,-3.65877 5.722313,-3.04543 11.374943,-6.2357 17.178103,-9.11517 6.21862,-3.89332 11.73083,-9.0203 16.05814,-15.0668 1.77263,-3.22615 2.00457,-7.19156 1.0044,-10.71757 -1.00869,-3.669369 -3.15914,-6.958849 -5.95321,-9.427699 -2.3868,-3.1471 -6.33016,-4.70005 -10.13518,-4.53045 z" />
      <path
         id="path42-6-0-9-7-5"
         style="fill:#782121;fill-opacity:1;stroke:none;stroke-width:0.158609px;stroke-linecap:butt;stroke-linejoin:miter;stroke-opacity:1"
         d="m 113.96529,91.225991 c -1.4854,0.0644 -2.93786,0.45183 -4.32382,0.98791 -1.67502,0.46091 -3.24548,1.29266 -4.68044,2.28478 -2.62784,2.11041 -5.977763,2.7979 -9.168813,3.43271 -1.28014,0.25881 -2.56861,0.48696 -3.8145,0.89085 -2.98059,0.70152 -5.93219,-0.43561 -8.8655,-0.9287 -1.20257,-0.15187 -2.36221,-0.56493 -3.57859,-0.6311 -6.59886,-0.61668 -13.39486,3.325829 -16.21052,9.556659 -0.64753,1.54453 -1.41738,3.03704 -1.93642,4.63843 -1.59179,4.64539 -2.17323,9.81083 -0.85585,14.60572 0.78048,2.78784 2.20244,5.44583 4.36487,7.33624 3.19006,2.89749 7.38025,4.27898 11.51727,4.8894 2.60331,0.36079 5.24184,0.51291 7.86633,0.376 5.50262,-0.35699 10.67263,-2.64085 15.49233,-5.26993 2.228013,-1.19696 4.392433,-2.5153 6.601703,-3.7444 7.08232,-2.82092 13.22469,-7.7188 18.41145,-13.38178 1.01635,-1.10321 2.08239,-2.19603 2.74797,-3.57673 1.79239,-3.47687 1.63214,-7.76241 0.17128,-11.33121 -0.90294,-2.270059 -2.35999,-4.297889 -4.19102,-5.855079 -2.21696,-3.00728 -5.95153,-4.49083 -9.54773,-4.27977 z" />
      <path
         id="path1263-7-5-9-7-1-6"
         style="fill:#ffffff;fill-rule:evenodd;stroke-width:0.196275"
         d="m 73.715167,128.26909 c -1.67705,-0.80695 -3.08081,-2.24419 -3.80922,-4.02176 -0.78695,-1.84027 -0.8171,-4.01133 -0.071,-5.86122 0.72061,-1.83112 2.91264,-4.80886 4.68113,-5.52604 1.81707,-0.81563 4.22107,-0.61386 5.93856,0.88836 1.71752,1.50223 3.23186,3.56246 3.97858,5.42805 0.73116,1.82093 0.34581,3.57552 -0.38623,5.39006 -1.0453,2.76377 -4.39525,4.45163 -7.23523,4.40346 -1.06261,1.3e-4 -2.12621,-0.24311 -3.09659,-0.70091 z" />
      <path
         id="path1263-7-4-1-8-7-6-2"
         style="fill:#782121;fill-rule:evenodd;stroke-width:0.137871"
         d="m 74.531867,125.62329 c -1.45178,-0.69708 -2.07301,-1.95382 -2.4616,-3.57613 -0.42037,-1.65104 -0.0174,-3.49533 1.05869,-4.77573 1.0624,-1.29998 2.66082,-2.62333 4.29546,-2.46395 1.67473,0.1394 2.81996,1.66609 3.70247,3.16341 0.86039,1.43905 1.03153,3.30138 0.4065,4.86302 -0.82218,2.24373 -3.24664,3.61586 -5.51147,3.24104 -0.51344,-0.0748 -1.01757,-0.22676 -1.49005,-0.45166 z" />
      <path
         id="text5836-4-6-0-5-9"
         style="font-style:normal;font-weight:normal;font-size:40px;line-height:1.25;font-family:sans-serif;white-space:pre;shape-inside:url(#rect5838);fill:#ffffff;fill-opacity:1;stroke:none;stroke-width:0.756851"
         d="m 106.45953,119.88244 c 3.3925,1.7482 8.58418,3.05109 12.2348,4.36936 -1.3562,0.66507 -3.98585,1.91507 -5.34207,2.58017 -2.26505,-1.16831 -5.50375,-2.11423 -7.76824,-3.28356 -0.31896,2.48941 -1.5179,6.06326 -1.9796,8.56865 -1.35575,0.6649 -4.442563,3.16763 -5.798293,3.8325 0.6752,-3.68399 3.700843,-9.51202 3.948553,-13.22028 -1.18726,-1.63127 -8.663403,-5.39205 -11.862703,-9.05775 4.35375,1.86877 7.84397,3.53877 13.282103,4.8886 1.18629,-2.11914 1.92032,-12.73306 2.83747,-17.33405 1.19216,6.09384 0.34415,12.07446 0.44798,18.65636 z" />
    </g>
  </g>
</svg>
